:version 1.10
:name ASF
:units
  mass 1
  length 1
  angle deg
:documentation
  ASF file generated by Kaydara
:root
  axis xyz
  order  tx ty tz rx ry rz
  position 0 0 0
  orientation 0 0 0
:bonedata
  begin
    id 1
    name RightUpLegDummy
    direction -1 2.30186e-007 8.31532e-007
    length 4.46685
    axis 0 0 0 xyz
  end
  begin
    id 2
    name RightUpLeg
    direction -2.30187e-007 -1 1.24343e-010
    length 16.4045
    axis -3.49089 -0.000906625 0.000286804 xyz
    dof rx ry rz
  end
  begin
    id 3
    name RightLeg
    direction -2.30181e-007 -1 -4.17157e-009
    length 17.5097
    axis 3.68512 0.0193738 -0.131023 xyz
    dof rx ry rz
  end
  begin
    id 4
    name RightFoot
    direction 8.31421e-007 -4.51202e-011 1
    length 6.49508
    axis 4.81691e-005 -0.120479 -0.188788 xyz
    dof rx ry rz
  end
  begin
    id 5
    name RightToes
    direction 0.00124746 -0.014064 0.9999
    length 3.85082
    axis 0.000481921 0.542163 -0.142578 xyz
    dof rx ry rz
  end
  begin
    id 6
    name SpineDummy
    direction 0.0717043 0.9409 -0.331007
    length 10.0032
    axis 0 0 0 xyz
  end
  begin
    id 7
    name Spine
    direction 2.30186e-007 1 4.58806e-011
    length 9.84055
    axis -0.001389 0.000121418 2.40972e-006 xyz
    dof rx ry rz
  end
  begin
    id 8
    name Spine1
    direction 0 0 0
    length 0
    axis -0.001389 0.000121451 1.30017e-006 xyz
    dof rx ry rz
  end
  begin
    id 9
    name HEadDummy
    direction -0.00347485 0.950688 -0.310128
    length 8.00997
    axis -0.001389 0.000121451 1.30017e-006 xyz
  end
  begin
    id 10
    name HEad
    direction -0.0222688 0.980941 0.193023
    length 5.12695
    axis -0.001389 0.000121451 1.30017e-006 xyz
    dof rx ry rz
  end
  begin
    id 11
    name LeftShoulder1Dummy
    direction 0.988871 0.146793 -0.0242004
    length 3.5792
    axis -0.001389 0.000121451 1.30017e-006 xyz
  end
  begin
    id 12
    name LeftShoulder1
    direction 0.993832 0.108932 0.020779
    length 4.16823
    axis -0.001389 0.000121451 1.30017e-006 xyz
    dof rx ry rz
  end
  begin
    id 13
    name LeftArm
    direction 1 3.44807e-006 -8.31404e-007
    length 9.91437
    axis -23.1894 0.134784 0.967509 xyz
    dof rx ry rz
  end
  begin
    id 14
    name LeftForeArm
    direction 1 3.44842e-006 -8.31581e-007
    length 9.08575
    axis -9.91835 -0.06569 -0.177793 xyz
    dof rx ry rz
  end
  begin
    id 15
    name LeftHand
    direction 0.992938 -0.0411636 0.11126
    length 5.32135
    axis -0.00960232 -0.00340091 0.185173 xyz
    dof rx ry rz
  end
  begin
    id 16
    name RightShoulderDummy
    direction -0.988871 0.146793 -0.0241962
    length 3.5792
    axis -0.001389 0.000121451 1.30017e-006 xyz
  end
  begin
    id 17
    name RightShoulder
    direction -0.993832 0.108933 0.0207785
    length 4.16823
    axis 0.215806 0.000203643 -0.0068026 xyz
    dof rx ry rz
  end
  begin
    id 18
    name RightArm
    direction -1 3.90912e-006 8.31284e-007
    length 9.91437
    axis -23.2009 -0.134239 -0.964101 xyz
    dof rx ry rz
  end
  begin
    id 19
    name RightForeArm
    direction -1 3.90882e-006 8.31502e-007
    length 9.08575
    axis -9.92322 0.0658061 0.178867 xyz
    dof rx ry rz
  end
  begin
    id 20
    name RightHand
    direction -0.992843 -0.0414603 0.112003
    length 5.28593
    axis -0.00960638 0.00330671 -0.185228 xyz
    dof rx ry rz
  end
  begin
    id 21
    name LeftUpLegDummy
    direction 1 -2.30186e-007 -8.31532e-007
    length 4.46685
    axis 0 0 0 xyz
  end
  begin
    id 22
    name LeftUpLeg
    direction -2.30187e-007 -1 6.00931e-010
    length 16.4045
    axis -3.48766 0.00143442 -0.000524262 xyz
    dof rx ry rz
  end
  begin
    id 23
    name LeftLeg
    direction -2.30187e-007 -1 1.6669e-009
    length 17.5097
    axis 3.68178 -0.00654042 -0.000285133 xyz
    dof rx ry rz
  end
  begin
    id 24
    name LeftFoot
    direction 8.31532e-007 -4.54478e-011 1
    length 6.49508
    axis 1.87233e-006 4.66016e-005 -8.6538e-006 xyz
    dof rx ry rz
  end
  begin
    id 25
    name LeftToes
    direction 0.00818058 -0.00485161 0.999955
    length 3.85048
    axis 1.06247e-005 4.65869e-005 -8.65513e-006 xyz
    dof rx ry rz
  end
:hierarchy
  begin
    root RightUpLegDummy SpineDummy LeftUpLegDummy
    RightUpLegDummy RightUpLeg
    RightUpLeg RightLeg
    RightLeg RightFoot
    RightFoot RightToes
    SpineDummy Spine
    Spine Spine1
    Spine1 HEadDummy LeftShoulder1Dummy RightShoulderDummy
    HEadDummy HEad
    LeftShoulder1Dummy LeftShoulder1
    LeftShoulder1 LeftArm
    LeftArm LeftForeArm
    LeftForeArm LeftHand
    RightShoulderDummy RightShoulder
    RightShoulder RightArm
    RightArm RightForeArm
    RightForeArm RightHand
    LeftUpLegDummy LeftUpLeg
    LeftUpLeg LeftLeg
    LeftLeg LeftFoot
    LeftFoot LeftToes
  end

:SAMPLES-PER-SECOND 30
:FULLY-SPECIFIED
:DEGREES
111
root  15.7106 23.1519 -0.973079 -150.083 61.4138 176.178
RightUpLeg  -95.7412 -1.50948 1.77067
RightLeg  92.9475 0.129388 0.849104
RightFoot  -20.9281 -0.223909 -0.834787
RightToes  -20.3159 -0.0837736 -0.179357
Spine  32.9309 -1.35508 2.44487
Spine1  49.6577 -4.58981 5.15798
HEad  8.27628 -16.8032 26.5617
LeftShoulder1  0 -2.42657e-020 -4.95415e-022
LeftArm  -19.7177 -79.8724 -87.0341
LeftForeArm  33.2811 -15.2353 -2.74409
LeftHand  0.286593 -5.47769 -6.36343
RightShoulder  0 2.42657e-020 1.07489e-018
RightArm  -47.1812 82.3111 77.2886
RightForeArm  38.8316 11.3942 2.02627
RightHand  -0.414391 20.5898 -1.91169
LeftUpLeg  -94.103 -3.21955 3.75791
LeftLeg  91.0442 -0.305442 -6.74907
LeftFoot  -19.9932 0.290094 1.64566
LeftToes  -23.0818 2.37847e-007 4.89147e-008
112
root  15.8728 22.003 -1.28251 -148.933 62.4224 178.037
RightUpLeg  -97.9217 -0.576837 1.86048
RightLeg  97.8492 0.0519743 1.07298
RightFoot  -23.3145 -0.280009 -0.97963
RightToes  -20.928 -0.0866919 -0.184241
Spine  33.7322 -1.14657 2.47818
Spine1  50.7994 -4.27343 5.1694
HEad  7.42583 -19.8505 27.8298
LeftShoulder1  0 -2.42657e-020 -4.95415e-022
LeftArm  -23.3065 -80.9526 -83.4159
LeftForeArm  31.0994 -15.4095 -2.77856
LeftHand  0.285132 -4.58599 -7.49301
RightShoulder  0 2.42657e-020 1.07489e-018
RightArm  -45.5853 83.7041 79.0714
RightForeArm  37.5646 11.7006 2.08371
RightHand  -0.276691 20.0135 -1.19838
LeftUpLeg  -96.5096 -3.29518 4.69647
LeftLeg  96.902 0.301099 -5.21491
LeftFoot  -23.0829 0.275456 1.34884
LeftToes  -22.3293 2.37847e-007 4.89147e-008
113
root  16.0444 20.9182 -1.59363 -148.342 63.1735 179.362
RightUpLeg  -99.934 -0.15217 1.9636
RightLeg  102.559 -0.0745623 1.38905
RightFoot  -25.2044 -0.34492 -1.1652
RightToes  -21.5228 -0.0901095 -0.188952
Spine  34.4466 -1.04179 2.56538
Spine1  51.816 -4.32577 5.43421
HEad  6.48527 -23.3043 28.8877
LeftShoulder1  0 -2.42657e-020 -4.95415e-022
LeftArm  -26.3811 -81.9888 -80.6519
LeftForeArm  29.4451 -15.1114 -2.72316
LeftHand  0.282631 -4.03866 -8.38728
RightShoulder  0 2.42657e-020 1.07489e-018
RightArm  -42.8411 84.9551 81.9228
RightForeArm  36.9406 11.8593 2.11344
RightHand  -0.288063 19.4982 -1.30689
LeftUpLeg  -98.4814 -3.32145 5.0633
LeftLeg  102.186 0.643208 -4.24766
LeftFoot  -25.751 0.263767 1.15389
LeftToes  -21.9658 2.37847e-007 4.89147e-008
114
root  16.1879 19.9561 -1.89772 -147.971 63.8589 -179.625
RightUpLeg  -101.745 0.0939381 1.87188
RightLeg  106.681 -0.248687 1.74458
RightFoot  -26.5643 -0.409767 -1.35822
RightToes  -22.5669 -0.0962254 -0.197133
Spine  34.9995 -0.933713 2.75822
Spine1  52.5861 -4.50526 5.99127
HEad  4.91314 -26.5075 29.6574
LeftShoulder1  0 -2.42657e-020 -4.95415e-022
LeftArm  -26.4021 -82.8069 -81.2892
LeftForeArm  28.7648 -14.6514 -2.63684
LeftHand  0.274205 -3.57142 -9.16574
RightShoulder  0 2.42657e-020 1.07489e-018
RightArm  -40.4247 85.8666 83.7344
RightForeArm  35.4392 12.0911 2.15744
RightHand  -0.29402 18.7509 -1.41109
LeftUpLeg  -100.148 -3.3457 5.09086
LeftLeg  106.742 0.79441 -3.39104
LeftFoot  -27.9848 0.232094 0.931377
LeftToes  -21.3748 2.37847e-007 4.89147e-008
115
root  16.3074 19.1552 -2.17269 -147.439 64.6469 -178.512
RightUpLeg  -103.115 0.667255 1.52674
RightLeg  109.937 -0.39206 1.9072
RightFoot  -27.7507 -0.452942 -1.45598
RightToes  -23.7135 -0.103113 -0.205989
Spine  35.4834 -0.780473 2.87075
Spine1  53.3013 -4.46997 6.29985
HEad  3.49312 -28.716 29.9771
LeftShoulder1  0 -2.42657e-020 -4.95415e-022
LeftArm  -25.8872 -83.5698 -82.1921
LeftForeArm  27.4009 -14.1474 -2.54295
LeftHand  0.265241 -2.92882 -10.7425
RightShoulder  0 2.42657e-020 1.07489e-018
RightArm  -33.2675 86.5191 90.1691
RightForeArm  34.0695 12.318 2.20039
RightHand  -0.267803 17.9403 -1.3269
LeftUpLeg  -101.445 -3.10303 4.90555
LeftLeg  110.523 0.836596 -2.73905
LeftFoot  -29.7066 0.196693 0.741641
LeftToes  -21.2725 2.37847e-007 4.89147e-008
116
root  16.3765 18.5598 -2.40979 -146.89 65.4605 -177.601
RightUpLeg  -104.136 1.30434 1.05713
RightLeg  112.162 -0.450292 1.8599
RightFoot  -28.7307 -0.466477 -1.44372
RightToes  -24.336 -0.106926 -0.210738
Spine  35.839 -0.644428 2.88542
Spine1  53.8681 -4.30467 6.30703
HEad  2.28574 -29.8144 30.1136
LeftShoulder1  0 -2.42657e-020 -4.95415e-022
LeftArm  -24.467 -84.3051 -83.7398
LeftForeArm  25.5193 -13.6601 -2.45267
LeftHand  0.251841 -2.3065 -12.8694
RightShoulder  0 2.42657e-020 1.07489e-018
RightArm  -21.1473 87.0193 101.91
RightForeArm  34.2775 12.2089 2.18012
RightHand  -0.128738 18.0351 -0.441341
LeftUpLeg  -102.413 -2.92058 4.69483
LeftLeg  113.351 0.771439 -2.13807
LeftFoot  -31.0962 0.147608 0.530513
LeftToes  -20.2748 2.37847e-007 4.89147e-008
117
root  16.4017 18.1944 -2.62443 -146.357 66.2842 -176.869
RightUpLeg  -104.797 1.74371 0.593967
RightLeg  113.45 -0.551773 2.02394
RightFoot  -29.1461 -0.493204 -1.51943
RightToes  -25.3824 -0.113451 -0.218627
Spine  36.013 -0.52138 2.86304
Spine1  54.1599 -4.11046 6.25425
HEad  1.41529 -30.2717 30.137
LeftShoulder1  0 -2.42657e-020 -4.95415e-022
LeftArm  -18.971 -84.8658 -89.29
LeftForeArm  23.8734 -13.0534 -2.34038
LeftHand  0.225335 -1.7252 -15.3129
RightShoulder  0 2.42657e-020 1.07489e-018
RightArm  -7.65577 87.1895 114.97
RightForeArm  35.6413 11.8381 2.11079
RightHand  0.261429 19.2398 1.91295
LeftUpLeg  -102.975 -2.88057 4.42412
LeftLeg  115.15 0.557077 -1.39885
LeftFoot  -31.9897 0.0572218 0.199615
LeftToes  -19.8315 2.37847e-007 4.89147e-008
118
root  16.3777 18.1264 -2.80969 -145.623 67.2393 -176.046
RightUpLeg  -104.875 2.18611 0.1471
RightLeg  113.492 -0.685419 2.39032
RightFoot  -29.0979 -0.533793 -1.67906
RightToes  -26.4011 -0.11994 -0.226191
Spine  35.9821 -0.369827 2.75354
Spine1  54.2023 -3.85456 6.156
HEad  0.995671 -30.4625 30.0859
LeftShoulder1  0 -2.42657e-020 -4.95415e-022
LeftArm  -10.0706 -84.5059 -96.2864
LeftForeArm  23.0677 -13.8875 -2.4956
LeftHand  0.298398 -2.0293 -17.1564
RightShoulder  0 2.42657e-020 1.07489e-018
RightArm  0.855737 86.347 120.341
RightForeArm  35.0289 12.7451 2.27839
RightHand  0.41784 19.905 2.75178
LeftUpLeg  -102.869 -2.73945 4.11346
LeftLeg  115.67 0.293664 -0.71032
LeftFoot  -32.6181 -0.0394683 -0.134901
LeftToes  -18.5235 2.37847e-007 4.89147e-008
119
root  16.3183 18.3796 -2.94485 -145.029 67.9262 -175.436
RightUpLeg  -104.254 2.31525 -0.0993248
RightLeg  112.341 -0.801618 2.88141
RightFoot  -28.4329 -0.575688 -1.89457
RightToes  -27.5142 -0.127184 -0.234323
Spine  35.7355 -0.353195 2.72124
Spine1  53.9594 -3.8205 6.14688
HEad  1.00363 -30.6709 30.0836
LeftShoulder1  0 -2.42657e-020 -4.95415e-022
LeftArm  -2.74933 -83.5002 -99.3185
LeftForeArm  27.3555 -15.7313 -2.84154
LeftHand  0.234418 -1.81583 -15.1382
RightShoulder  0 2.42657e-020 1.07489e-018
RightArm  3.69205 85.2702 119.928
RightForeArm  35.6618 13.7382 2.46219
RightHand  0.144783 19.2983 1.22196
LeftUpLeg  -102.215 -2.55151 3.81379
LeftLeg  114.931 0.156426 -0.384705
LeftFoot  -32.1958 -0.0948352 -0.328618
LeftToes  -18.4864 2.37847e-007 4.89147e-008
120
root  16.202 18.8882 -3.05915 -144.494 68.5637 -174.984
RightUpLeg  -103.258 2.31684 -0.320513
RightLeg  110.252 -0.8525 3.41679
RightFoot  -27.1192 -0.594453 -2.08693
RightToes  -28.1712 -0.131532 -0.239056
Spine  35.4056 -0.353923 2.7113
Spine1  53.5647 -3.7732 6.08525
HEad  1.09698 -31.1253 30.4847
LeftShoulder1  0 -2.42657e-020 -4.95415e-022
LeftArm  0.133728 -82.668 -98.7684
LeftForeArm  25.6586 -17.3617 -3.15463
LeftHand  0.138886 -1.17993 -13.877
RightShoulder  0 2.42657e-020 1.07489e-018
RightArm  1.46666 84.4143 117.79
RightForeArm  35.1394 13.955 2.50313
RightHand  -0.0545843 18.7229 0.038925
LeftUpLeg  -101.015 -2.39329 3.40147
LeftLeg  113.016 0.0172124 -0.0295993
LeftFoot  -31.5999 -0.148055 -0.523222
LeftToes  -17.5411 2.37847e-007 4.89147e-008
121
root  16.0487 19.6306 -3.16061 -144.299 69.103 -174.909
RightUpLeg  -101.684 2.10834 -0.566592
RightLeg  107.197 -0.83372 4.11023
RightFoot  -25.42 -0.608548 -2.32019
RightToes  -28.9333 -0.136645 -0.244484
Spine  35.0087 -0.448199 2.77089
Spine1  53.1065 -3.79879 6.02535
HEad  0.332082 -31.5553 31.5191
LeftShoulder1  0 -2.42657e-020 -4.95415e-022
LeftArm  2.31021 -81.799 -97.7735
LeftForeArm  26.8487 -19.0447 -3.48299
LeftHand  0.102755 -0.925245 -13.1419
RightShoulder  0 2.42657e-020 1.07489e-018
RightArm  -6.84354 83.4747 111.148
RightForeArm  35.7312 14.215 2.55124
RightHand  -0.0846542 18.2111 -0.158226
LeftUpLeg  -99.245 -2.30035 2.89641
LeftLeg  110.014 -0.054341 0.20875
LeftFoot  -30.607 -0.184665 -0.674862
LeftToes  -16.5148 2.37847e-007 4.89147e-008
122
root  15.8581 20.5502 -3.26286 -145.149 69.6201 -175.823
RightUpLeg  -99.6717 1.66447 -1.05341
RightLeg  103.531 -0.703573 4.87828
RightFoot  -23.2759 -0.601165 -2.54075
RightToes  -29.7743 -0.14237 -0.250395
Spine  34.4934 -0.699616 2.83565
Spine1  52.4224 -3.99131 5.85861
HEad  -0.0647554 -32.1774 32.5091
LeftShoulder1  0 -2.42657e-020 -4.95415e-022
LeftArm  5.58443 -80.6023 -96.3841
LeftForeArm  26.9286 -20.8446 -3.84235
LeftHand  0.0771658 -0.72959 -12.5637
RightShoulder  0 2.42657e-020 1.07489e-018
RightArm  -18.1626 81.8288 102.424
RightForeArm  35.5537 14.4423 2.59401
RightHand  -0.147932 17.9722 -0.565646
LeftUpLeg  -96.8422 -2.56632 2.22739
LeftLeg  106.019 -0.139102 0.66722
LeftFoot  -29.2864 -0.246992 -0.945285
LeftToes  -15.5103 2.37847e-007 4.89147e-008
